<svg xmlns="http://www.w3.org/2000/svg" viewBox="0 0 512 512">
  <!-- Background with rounded corners -->
  <rect width="512" height="512" rx="80" fill="#1a1a2e"/>
  
  <!-- Book base -->
  <rect x="120" y="100" width="272" height="312" rx="8" fill="#2a2a4e"/>
  <rect x="120" y="100" width="272" height="312" rx="8" fill="url(#bookGradient)"/>
  
  <!-- Book pages -->
  <rect x="140" y="120" width="232" height="272" rx="4" fill="#f5f5f5" opacity="0.9"/>
  
  <!-- Book spine/binding -->
  <rect x="120" y="100" width="20" height="312" rx="8" fill="#c9a227"/>
  <rect x="120" y="100" width="20" height="312" rx="8" fill="url(#spineGradient)"/>
  
  <!-- Text lines on pages -->
  <line x1="160" y1="160" x2="340" y2="160" stroke="#c9a227" stroke-width="8" stroke-linecap="round"/>
  <line x1="160" y1="200" x2="320" y2="200" stroke="#c9a227" stroke-width="6" stroke-linecap="round" opacity="0.7"/>
  <line x1="160" y1="240" x2="340" y2="240" stroke="#c9a227" stroke-width="6" stroke-linecap="round" opacity="0.7"/>
  <line x1="160" y1="280" x2="300" y2="280" stroke="#c9a227" stroke-width="6" stroke-linecap="round" opacity="0.7"/>
  
  <!-- Highlight marker (representing study/annotation) -->
  <rect x="180" y="220" width="100" height="20" rx="4" fill="#c9a227" opacity="0.4"/>
  
  <!-- Cross reference symbol (small cross) -->
  <circle cx="320" cy="180" r="12" fill="none" stroke="#c9a227" stroke-width="3"/>
  <line x1="320" y1="168" x2="320" y2="192" stroke="#c9a227" stroke-width="3" stroke-linecap="round"/>
  <line x1="308" y1="180" x2="332" y2="180" stroke="#c9a227" stroke-width="3" stroke-linecap="round"/>
  
  <!-- Gradient definitions -->
  <defs>
    <linearGradient id="bookGradient" x1="0%" y1="0%" x2="100%" y2="100%">
      <stop offset="0%" style="stop-color:#2a2a4e;stop-opacity:1" />
      <stop offset="100%" style="stop-color:#1a1a2e;stop-opacity:1" />
    </linearGradient>
    <linearGradient id="spineGradient" x1="0%" y1="0%" x2="100%" y2="100%">
      <stop offset="0%" style="stop-color:#d4b32a;stop-opacity:1" />
      <stop offset="100%" style="stop-color:#a0821f;stop-opacity:1" />
    </linearGradient>
  </defs>
</svg>
